<?xml version="1.0" standalone="no"?>
<!DOCTYPE svg PUBLIC "-//W3C//DTD SVG 20010904//EN"
 "http://www.w3.org/TR/2001/REC-SVG-20010904/DTD/svg10.dtd">
<svg version="1.0" xmlns="http://www.w3.org/2000/svg"
 width="476.000000pt" height="476.000000pt" viewBox="0 0 476.000000 476.000000"
 preserveAspectRatio="xMidYMid meet">
<metadata>
Created by potrace 1.11, written by Peter Selinger 2001-2013
</metadata>
<g transform="translate(0.000000,476.000000) scale(0.100000,-0.100000)"
fill="#000000" stroke="none">
<path d="M1300 4382 c-635 -206 -1156 -376 -1156 -376 -1 -1 57 -560 130
-1244 l131 -1244 890 -759 c517 -441 896 -757 903 -754 8 3 482 303 1054 667
642 409 1043 671 1048 683 9 26 325 2504 319 2509 -8 7 -2150 896 -2157 895
-4 -1 -527 -170 -1162 -377z"/>
</g>
</svg>
